<svg width="1080" height="1128" viewBox="0 0 1080 1128" fill="none" xmlns="http://www.w3.org/2000/svg">
<path d="M396.42 1017.21L415.033 1177.57L583.985 1148.93L579.69 1126.02L572.531 1035.82L420.76 947.049L396.42 1017.21Z" fill="#E8CBC4"/>
<path d="M413.601 1154.66C449.635 1102.76 473.498 1071.73 485.191 1061.59V972.821L405.01 947.049L370.647 1071.62L413.601 1154.66Z" fill="#E1A495"/>
<path d="M427.919 1007.18L407.874 1071.62L433.646 1088.8L447.964 1055.87L485.191 1101.68L472.305 1158.95L492.35 1148.93L503.804 1093.09C494.259 1088.8 468.964 1060.16 427.919 1007.18Z" fill="#567FB8"/>
<path d="M478.032 1067.32L460.85 1088.8L400.715 1090.23V1060.16L426.487 1002.89L463.714 1017.21L478.032 1067.32Z" fill="black" fill-opacity="0.2"/>
<path d="M498.077 285.559C476.6 263.127 467.055 231.151 469.441 189.628C491.395 204.901 516.213 213.492 543.895 215.401C541.986 153.356 534.349 117.561 520.986 108.016C565.372 104.675 594.962 108.493 609.757 119.47C643.484 59.9716 687.392 20.3585 741.483 0.631226C744.664 45.1763 757.55 76.1986 780.141 93.698C812.277 70.4714 832.322 49.4717 840.277 30.699C874.322 66.0166 898.185 113.743 911.866 173.879L934.775 153.833C952.275 185.333 958.479 226.855 953.389 278.4C981.388 258.037 1000 248.969 1009.23 251.196C997.456 275.059 992.206 297.013 993.479 317.058L976.297 370.035L949.093 454.511C946.866 492.374 935.412 523.874 914.73 549.009C916.639 569.055 912.344 591.009 901.844 614.872C869.39 591.645 852.208 562.055 850.299 526.101L642.689 408.693C607.371 307.195 559.167 266.15 498.077 285.559Z" fill="#E8D49B"/>
<path d="M468.009 192.492C486.782 217.946 515.418 237.992 553.917 252.627C610.235 274.899 641.734 291.604 648.416 302.74C651.518 278.161 659.632 257.639 672.756 241.173L677.052 225.423C683.018 271.002 695.904 306.797 715.71 332.808C749.119 288.582 781.096 266.628 811.641 266.945C782.05 315.626 765.346 356.671 761.528 390.08L904.707 480.283C908.526 501.879 908.526 527.174 904.707 556.168L893.253 570.486C895.281 596.378 897.19 613.082 898.98 620.599L823.095 527.532L533.872 390.08L450.828 246.9L468.009 192.492Z" fill="#E3BF5A"/>
<path d="M655.575 408.693H694.233H715.71C741.005 392.944 757.232 385.785 764.391 387.216C772.505 372.421 794.459 366.217 830.254 368.603C833.118 393.421 831.209 414.421 824.527 431.602L850.299 415.852L860.322 425.875L867.481 415.852L870.344 421.579L876.072 411.557L881.799 417.284L884.662 400.103L888.958 402.966L896.117 390.08C936.207 380.535 963.888 371.467 979.161 362.876C1015.91 329.944 1038.34 307.513 1046.46 295.581C1068.41 272.195 1081.3 264.082 1085.11 271.241C1089.41 278.638 1087.02 284.843 1077.95 289.854C1081.77 291.525 1080.82 294.865 1075.09 299.877C1075.81 307.036 1073.9 312.763 1069.36 317.058L1063.64 337.103V345.694C1022.59 384.353 996.342 408.216 984.888 417.284C972.479 434.227 959.593 447.59 946.23 457.374L870.344 498.897L834.549 544.714C809.016 547.816 794.22 554.498 790.164 564.759L757.232 609.145C749.715 607.952 742.556 603.656 735.755 596.259L720.006 603.418L655.575 417.284V408.693Z" fill="#E8CBC4"/>
<path d="M771.55 497.465L778.709 593.395L804.482 561.896L841.708 550.441L873.208 510.351L959.116 461.67L1023.55 410.125L1072.23 357.149L1098 276.968L1087.98 249.764L1047.89 269.809L976.297 349.99L880.367 381.489L834.549 418.716L838.845 451.647L771.55 497.465Z" fill="url(#paint0_linear_1496_55)"/>
<path d="M1066.5 327.081C1000 384.671 963.729 420.943 957.684 435.897C912.184 460.079 869.23 484.419 828.822 508.919L805.914 523.237V530.396L866.049 493.169C893.413 477.579 920.139 463.738 946.23 451.647L973.434 427.307C1004.87 388.589 1035.9 358.999 1066.5 338.535V327.081Z" fill="#567FB8"/>
<path d="M712.847 550.441L727.165 547.578L730.028 528.964L741.483 524.669L742.914 556.168C749.402 559.002 753.221 557.093 754.369 550.441L758.664 497.465L831.686 451.647L828.822 427.307L844.572 414.421L843.14 423.011L848.867 455.943L772.982 504.624C767.748 515.9 765.839 528.786 767.255 543.282L772.982 536.123C772.221 524.788 781.767 514.288 801.618 504.624L805.914 496.033L897.549 433.034C958.937 396.165 982.801 373.734 969.138 365.739L982.025 351.422V360.012C993.718 370.587 993.718 379.177 982.025 385.785C957.952 406.814 931.225 425.905 901.844 443.057L810.209 506.056L781.573 533.26L772.982 554.737C747.449 570.367 729.312 579.435 718.574 581.941V567.623C727.224 566.609 731.042 564.223 730.028 560.464C729.85 555.155 725.077 554.677 715.71 559.032L709.983 556.168L712.847 550.441Z" fill="#567FB8"/>
<path d="M699.96 517.51C714.04 502.715 722.153 489.351 724.301 477.42C713.085 466.442 709.744 457.852 714.278 451.647L774.414 374.33L665.597 390.08L626.939 412.989C672.279 489.351 696.62 524.192 699.96 517.51Z" fill="#E1A495"/>
<path d="M788.732 378.626C790.641 397.955 799.232 407.977 814.504 408.693C822.618 390.08 822.618 378.626 814.504 374.33C803.05 373.853 794.459 375.285 788.732 378.626Z" fill="#E1A495"/>
<path d="M803.05 425.875C780.857 408.216 767.016 403.921 761.528 412.989L750.073 435.898C754.13 442.579 753.653 450.215 748.642 458.806C748.642 468.113 751.982 468.113 758.664 458.806C765.823 440.909 774.414 436.136 784.437 444.488C780.767 440.014 779.813 437.151 781.573 435.898C786.286 436.375 789.627 438.284 791.596 441.625C799.977 433.571 803.795 428.321 803.05 425.875Z" fill="#E1A495"/>
<path d="M-424 1151.8H413.601V1071.62L396.42 1017.21C411.573 982.009 432.095 969.122 457.987 978.548C477.674 991.673 482.447 1017.45 472.305 1055.87C485.549 1063.14 489.367 1069.83 483.759 1075.91C509.889 1068.99 521.821 1085.69 519.554 1126.02C526.832 1130.68 531.128 1135.93 532.44 1141.77C541.747 1136.05 546.52 1127.93 546.758 1117.43C567.758 1101.68 578.735 1108.84 579.69 1138.91C595.201 1130.56 602.36 1119.1 601.167 1104.55C596.394 1020.07 589.235 969.958 579.69 954.208C597.11 910.538 602.837 882.857 596.871 871.164L635.53 831.073C665.836 800.528 682.063 781.915 684.211 775.233C735.755 744.927 761.528 726.314 761.528 719.393L764.391 705.075C718.097 566.788 688.506 485.652 675.62 461.67C620.734 307.513 562.508 249.764 500.941 288.422C457.032 310.854 432.692 325.172 427.919 331.376L433.646 349.99C419.328 327.081 404.056 327.081 387.829 349.99C299.057 359.535 232.24 383.398 187.377 421.579C122.151 451.488 85.4018 486.328 77.1289 526.101C3.94785 596.418 -46.1651 665.144 -73.2098 732.279C-148.14 748.029 -204.935 786.688 -243.594 848.255C-318.047 931.538 -378.183 1032.72 -424 1151.8Z" fill="#404148"/>
<path d="M39.9019 702.212C149.355 693.303 204.241 684.235 204.558 675.008C167.968 658.781 113.083 667.849 39.9019 702.212Z" fill="black" fill-opacity="0.2"/>
<path d="M181.65 510.351C209.331 551.714 224.604 582.736 227.467 603.418L267.558 680.735L260.399 696.485L191.672 603.418C182.764 570.964 179.423 539.942 181.65 510.351Z" fill="black" fill-opacity="0.2"/>
<path d="M393.556 687.894C403.34 796.949 392.84 871.88 362.056 912.686C368.261 775.472 378.761 700.541 393.556 687.894Z" fill="black" fill-opacity="0.2"/>
<path d="M459.418 488.874C503.565 632.77 526.474 730.609 528.145 782.392C491.634 721.78 463.952 662.121 445.1 603.418C452.259 541.612 457.032 503.431 459.418 488.874Z" fill="black" fill-opacity="0.2"/>
<path d="M602.598 569.055C609.28 641.36 603.075 690.042 583.985 715.098C583.269 776.427 579.928 814.131 573.962 828.21C590.667 849.448 597.826 866.153 595.439 878.323L631.234 901.232L625.507 1140.34H583.985L556.781 1124.59L559.644 1108.84C555.19 986.025 550.894 916.822 546.758 901.232C540.713 887.231 541.668 874.823 549.622 864.005C555.349 833.778 557.735 816.119 556.781 811.028L541.031 793.847C566.485 692.666 576.508 626.327 571.099 594.827C578.417 590.372 584.144 588.94 588.28 590.532L602.598 569.055Z" fill="#AA4E63"/>
<path d="M606.894 601.986C598.621 626.167 590.507 640.485 582.553 644.94C582.235 675.167 582.235 700.462 582.553 720.825C596.871 693.461 603.553 678.189 602.598 675.007C601.032 662.628 602.464 653.083 606.894 646.372V601.986Z" fill="black" fill-opacity="0.2"/>
<path d="M397.851 1015.78L387.829 1065.89C367.426 1073.17 355.971 1087.48 353.466 1108.84C361.102 1100.61 367.306 1097.27 372.079 1098.82C386.993 1118.15 395.584 1135.81 397.851 1151.8L413.601 1148.93C421.161 1095.97 415.925 1051.6 397.851 1015.78Z" fill="#AA4E63"/>
<path d="M353.465 1111.71L372.079 1148.93L433.646 1166.11L419.328 1042.98L397.851 1002.89C353.938 1068.27 338.202 1109.33 353.465 1111.71Z" fill="black" fill-opacity="0.2"/>
<path d="M-401.091 1148.93C-332.365 1123.16 -282.252 1115.05 -250.753 1124.59C-152.436 1117.91 -71.7782 1093.09 -8.77911 1050.14C100.037 993.344 174.014 1000.98 213.149 1073.05C239.399 1116.96 253.717 1146.55 256.103 1161.82C-157.845 1172.96 -376.91 1168.66 -401.091 1148.93Z" fill="#BEBBC5"/>
<path d="M74.265 1015.78C150.15 1036.54 201.695 1080.92 228.899 1148.93L251.808 1157.52L263.262 1143.21L200.263 1035.82L132.969 990.003L74.265 1002.89V1015.78Z" fill="black" fill-opacity="0.2"/>
<path d="M145.855 1120.3C154.326 1119.46 166.258 1130.92 181.65 1154.66L158.741 1153.23C149.554 1138.31 145.258 1127.34 145.855 1120.3Z" fill="black" fill-opacity="0.2"/>
<path d="M131.537 454.511C130.94 482.669 150.508 486.965 190.241 467.397C253.478 434.585 283.069 404.04 279.012 375.762C195.968 398.432 146.809 424.682 131.537 454.511Z" fill="#AA4E63"/>
<defs>
<linearGradient id="paint0_linear_1496_55" x1="780.141" y1="547.578" x2="1067.95" y2="340.057" gradientUnits="userSpaceOnUse">
<stop stop-color="#E9CBC2"/>
<stop offset="0.975" stop-color="#E8A595"/>
</linearGradient>
</defs>
</svg>
