<svg id="visual" viewBox="0 0 1920 1080" width="1920" height="1080" xmlns="http://www.w3.org/2000/svg" xmlns:xlink="http://www.w3.org/1999/xlink" version="1.1"><rect x="0" y="0" width="1920" height="1080" fill="#BE185D"></rect><path d="M0 961L45.7 967C91.3 973 182.7 985 274.2 966.8C365.7 948.7 457.3 900.3 548.8 875.7C640.3 851 731.7 850 823 866.8C914.3 883.7 1005.7 918.3 1097 936.2C1188.3 954 1279.7 955 1371.2 947.2C1462.7 939.3 1554.3 922.7 1645.8 919.7C1737.3 916.7 1828.7 927.3 1874.3 932.7L1920 938L1920 1081L1874.3 1081C1828.7 1081 1737.3 1081 1645.8 1081C1554.3 1081 1462.7 1081 1371.2 1081C1279.7 1081 1188.3 1081 1097 1081C1005.7 1081 914.3 1081 823 1081C731.7 1081 640.3 1081 548.8 1081C457.3 1081 365.7 1081 274.2 1081C182.7 1081 91.3 1081 45.7 1081L0 1081Z" fill="#1F2937" stroke-linecap="round" stroke-linejoin="miter"></path></svg>