<svg id="visual" viewBox="0 0 1920 1080" width="1920" height="1080" xmlns="http://www.w3.org/2000/svg" xmlns:xlink="http://www.w3.org/1999/xlink" version="1.1"><rect x="0" y="0" width="1920" height="1080" fill="#1F2937"></rect><path d="M0 956L40 948.3C80 940.7 160 925.3 240 920.7C320 916 400 922 480 931C560 940 640 952 720 945.5C800 939 880 914 960 898.2C1040 882.3 1120 875.7 1200 884.7C1280 893.7 1360 918.3 1440 927.8C1520 937.3 1600 931.7 1680 921.3C1760 911 1840 896 1880 888.5L1920 881L1920 1081L1880 1081C1840 1081 1760 1081 1680 1081C1600 1081 1520 1081 1440 1081C1360 1081 1280 1081 1200 1081C1120 1081 1040 1081 960 1081C880 1081 800 1081 720 1081C640 1081 560 1081 480 1081C400 1081 320 1081 240 1081C160 1081 80 1081 40 1081L0 1081Z" fill="#BE185D" stroke-linecap="round" stroke-linejoin="miter"></path></svg>