<svg id="visual" viewBox="0 0 1920 1080" width="1920" height="1080" xmlns="http://www.w3.org/2000/svg" xmlns:xlink="http://www.w3.org/1999/xlink" version="1.1"><rect x="0" y="0" width="1920" height="1080" fill="#1F2937"></rect><path d="M0 135L40 142.7C80 150.3 160 165.7 240 173.5C320 181.3 400 181.7 480 188.8C560 196 640 210 720 211.2C800 212.3 880 200.7 960 189.3C1040 178 1120 167 1200 172.8C1280 178.7 1360 201.3 1440 208.5C1520 215.7 1600 207.3 1680 202.8C1760 198.3 1840 197.7 1880 197.3L1920 197L1920 0L1880 0C1840 0 1760 0 1680 0C1600 0 1520 0 1440 0C1360 0 1280 0 1200 0C1120 0 1040 0 960 0C880 0 800 0 720 0C640 0 560 0 480 0C400 0 320 0 240 0C160 0 80 0 40 0L0 0Z" fill="#BE185D" stroke-linecap="round" stroke-linejoin="miter"></path></svg>